# xmcd
#
# Track frame offsets: 
#        150
#        17034
#        31194
#        43219
#        70289
#        80974
#        97574
#        111583
#        126098
#        139656
#        177642
#        188733
#        204219
#        224062
#        244187
#
# Disc length: 3393 seconds
#
# Revision: 0
# Processed by: cddbd v1.5.2PL0 Copyright (c) Steve Scherf et al.
# Submitted via: ExactAudioCopy v1.0b3
#
DISCID=dd0d3f0f
DTITLE=Guitar Nick and Blue Al - Tribute to Robert Johnson
DYEAR=2003
DGENRE=Acoustic
TTITLE0=Springtime Boogie
TTITLE1=Love in Vain
TTITLE2=Sweet Home Chicago
TTITLE3=Ramblin' on My Mind
TTITLE4=Little Green Frogs
TTITLE5=Walking Blues
TTITLE6=Good Morning, Mr. Blues
TTITLE7=Come On in My Kitchen
TTITLE8=When You Got A Good Friend
TTITLE9=Country and Blues Fantasia
TTITLE10=Baby, Please Don't Go
TTITLE11=Harmonica Solo
TTITLE12=Hoochie Coochie Man
TTITLE13=Sofia Blues
TTITLE14=How Long Blues
EXTD=
EXTT0=
EXTT1=
EXTT2=
EXTT3=
EXTT4=
EXTT5=
EXTT6=
EXTT7=
EXTT8=
EXTT9=
EXTT10=
EXTT11=
EXTT12=
EXTT13=
EXTT14=
PLAYORDER=
